<svg width="156" height="26" viewBox="0 0 156 26" fill="none" xmlns="http://www.w3.org/2000/svg">
<path d="M42.3688 9.8268L34.6967 9.24536L31.8012 0.713379L28.9055 9.24536L21.25 9.8268L27.1236 15.6988L25.1932 24.5942L31.8012 19.6814L38.409 24.5942L36.4786 15.6988L42.3688 9.8268Z" fill="#FFD400"/>
<path d="M36.4786 15.6988L38.409 24.5942L31.8011 19.6814V0.713379L34.6967 9.24536L42.3688 9.8268L36.4786 15.6988Z" fill="#FDBF00"/>
<path d="M70.5273 9.8268L62.8552 9.24536L59.9596 0.713379L57.064 9.24536L49.4084 9.8268L55.2821 15.6988L53.3517 24.5942L59.9596 19.6814L66.5675 24.5942L64.6371 15.6988L70.5273 9.8268Z" fill="#FFD400"/>
<path d="M64.637 15.6988L66.5674 24.5942L59.9595 19.6814V0.713379L62.8551 9.24536L70.5271 9.8268L64.637 15.6988Z" fill="#FDBF00"/>
<path d="M98.6857 9.8268L91.0136 9.24536L88.1181 0.713379L85.2224 9.24536L77.5669 9.8268L83.4405 15.6988L81.5101 24.5942L88.1181 19.6814L94.7259 24.5942L92.7955 15.6988L98.6857 9.8268Z" fill="#FFD400"/>
<path d="M92.7954 15.6988L94.7258 24.5942L88.1179 19.6814V0.713379L91.0135 9.24536L98.6856 9.8268L92.7954 15.6988Z" fill="#FDBF00"/>
<path d="M126.844 9.8268L119.172 9.24536L116.276 0.713379L113.381 9.24536L105.725 9.8268L111.599 15.6988L109.668 24.5942L116.276 19.6814L122.884 24.5942L120.954 15.6988L126.844 9.8268Z" fill="#FFD400"/>
<path d="M120.954 15.6988L122.884 24.5942L116.276 19.6814V0.713379L119.172 9.24536L126.844 9.8268L120.954 15.6988Z" fill="#FDBF00"/>
<path d="M155.002 9.8268L147.33 9.24536L144.435 0.713379L141.539 9.24536L133.884 9.8268L139.757 15.6988L137.827 24.5942L144.435 19.6814L151.043 24.5942L149.112 15.6988L155.002 9.8268Z" fill="#FFD400"/>
<path d="M149.112 15.6988L151.043 24.5942L144.435 19.6814V0.713379L147.33 9.24536L155.002 9.8268L149.112 15.6988Z" fill="#FDBF00"/>
</svg>
